<svg id="Layer_1" data-name="Layer 1" xmlns="http://www.w3.org/2000/svg" viewBox="0 0 242.79 146.87"><title>DigitalTathaastu</title><path d="M14.43,98.44v48.43H7.06V98.44H0V91.76H21.49v6.68Z" style="fill:#303633"/><path d="M32.7,146.87H25.33V101.2q0-9.44,8.82-9.44h5.53q8.82,0,8.83,9.44v45.67H41.14V126.68H32.7ZM41.14,120V101.66c0-2.15-1.08-3.22-3.22-3.22h-2q-3.22,0-3.22,3.22V120Z" style="fill:#303633"/><path d="M66.77,98.44v48.43H59.41V98.44H52.34V91.76h21.5v6.68Z" style="fill:#303633"/><path d="M94.48,146.87v-25H85.42v25H78.06V91.76h7.36v23.41h9.06V91.76h7.37v55.11Z" style="fill:#303633"/><path d="M115.74,146.87h-7.37V101.2q0-9.44,8.83-9.44h5.53q8.82,0,8.82,9.44v45.67h-7.36V126.68h-8.45ZM124.19,120V101.66q0-3.22-3.23-3.22h-2q-3.23,0-3.23,3.22V120Z" style="fill:#303633"/><path d="M145.06,146.87h-7.37V101.2q0-9.44,8.83-9.44h5.53q8.82,0,8.82,9.44v45.67H153.5V126.68h-8.44ZM153.5,120V101.66q0-3.22-3.22-3.22h-2q-3.22,0-3.23,3.22V120Z" style="fill:#303633"/><path d="M181.52,106.57v-4.83c0-2.2-1.08-3.3-3.22-3.3h-1.16q-3.13,0-3.14,3.3v9.13a2.69,2.69,0,0,0,.61,2.07,15.34,15.34,0,0,0,2,1.38l7,3.77a31,31,0,0,1,3.26,2,5.26,5.26,0,0,1,1.5,1.76,9.73,9.73,0,0,1,.54,4v11.74q0,9.28-8.91,9.29h-4.52q-8.84,0-8.83-10.13V134H174v3q0,3.22,3.3,3.22h1.3q2.93,0,2.92-3.22V127.6a2.75,2.75,0,0,0-.61-2.07,16.08,16.08,0,0,0-2-1.38l-7-3.92a20.88,20.88,0,0,1-3.33-2.07,4.74,4.74,0,0,1-1.5-2.19,10.84,10.84,0,0,1-.46-3.49V101.2q0-9.44,8.83-9.44h4.6q8.82,0,8.83,9.44v5.37Z" style="fill:#303633"/><path d="M206.77,98.44v48.43H199.4V98.44h-7.06V91.76h21.49v6.68Z" style="fill:#303633"/><path d="M242,91.76v44.67q0,10.44-8.9,10.44h-6.22q-8.83,0-8.83-10.52V91.76h7.37v44.82c0,2.41,1.08,3.61,3.22,3.61h3q3,0,3-3.61V91.76Z" style="fill:#303633"/><path d="M20.86,10.68a9.79,9.79,0,0,0-3-7.25,9.77,9.77,0,0,0-7.25-3H.36V78.61H10.61a9.77,9.77,0,0,0,7.25-3,9.79,9.79,0,0,0,3-7.25Zm-3.2,57.68a6.84,6.84,0,0,1-2.07,5,6.83,6.83,0,0,1-5,2.08h-7V3.63h7a6.79,6.79,0,0,1,5,2.08,6.81,6.81,0,0,1,2.08,5Z" style="fill:#303633"/><rect x="33.09" y="0.43" width="3.2" height="78.17" style="fill:#303633"/><path d="M69,23.5h-9v3.2h5.77V68.36a7.05,7.05,0,0,1-14.1,0V10.68a6.8,6.8,0,0,1,2.07-5,7,7,0,0,1,10,0,6.81,6.81,0,0,1,2.08,5v4.49H69V10.68a9.79,9.79,0,0,0-3-7.25,10.27,10.27,0,0,0-14.51,0,9.82,9.82,0,0,0-3,7.25V68.36A10.23,10.23,0,0,0,58.78,78.61,10.24,10.24,0,0,0,69,68.36Z" style="fill:#303633"/><rect x="81.26" y="0.43" width="3.2" height="78.17" style="fill:#303633"/><polygon points="117.19 0.43 96.69 0.43 96.69 3.63 105.34 3.63 105.34 78.61 108.54 78.61 108.54 3.63 117.19 3.63 117.19 0.43" style="fill:#303633"/><path d="M149.93,78.61V10.68a9.79,9.79,0,0,0-3-7.25,10.27,10.27,0,0,0-14.51,0,9.82,9.82,0,0,0-3,7.25V78.61h3.19V26.7h14.11V78.61ZM132.62,23.5V10.68a6.81,6.81,0,0,1,2.08-5,7,7,0,0,1,10,0,6.81,6.81,0,0,1,2.08,5V23.5Z" style="fill:#303633"/><polygon points="162.16 0.43 162.16 78.61 176.89 78.61 176.89 75.41 165.36 75.41 165.36 0.43 162.16 0.43" style="fill:#303633"/><path d="M242.78,52.76c-.21-6.71-.16-13.57-.11-20.23,0-3,.05-6.07.05-9.1a3,3,0,1,0-6,0c0,2.87,0,5.74-.05,8.61v.45c0,6.69-.11,13.62.11,20.47a19.59,19.59,0,0,1-21.63,19.89c-9.11-1.14-16-7.42-17.54-16A64.93,64.93,0,0,1,197,44.36c0-2.06.05-4.18,0-6.31-.11-3.43-.73-7.33-4.48-10.25a3,3,0,1,0-3.69,4.75c1.5,1.16,2.07,2.65,2.16,5.69.06,2,0,4.08,0,6.08a70.59,70.59,0,0,0,.71,13.59c2,11.22,10.93,19.43,22.7,20.9a23.13,23.13,0,0,0,3,.19,25.66,25.66,0,0,0,25.38-26.24Z" style="fill:#303633"/><path d="M208.81,44.52c7.46.61,11.05,6.52,14.85,12.78a3,3,0,1,0,5.13-3.12c-4.21-6.93-9-14.78-19.49-15.65a7.71,7.71,0,0,1-.88-.09,6.51,6.51,0,0,1-.07-1.49c.06-7.25.05-14.63,0-21.76v-.57c0-2.78,0-5.56,0-8.35a3,3,0,0,0-6,0v8.36c0,7.27,0,14.78,0,22.28C202.33,39,202.3,44,208.81,44.52Z" style="fill:#303633"/><path d="M213.73,36.62a3.34,3.34,0,0,0,1.87.55,3.25,3.25,0,0,0,2.26-.86,7.24,7.24,0,0,0,2-5.78v-.21q0-10.41,0-20.82V2.55a3,3,0,0,0-6,0v7q0,10.41,0,20.83v.21c0,1.33,0,2-.49,2.4a2.27,2.27,0,0,0-.73,1.87A2.46,2.46,0,0,0,213.73,36.62Z" style="fill:#303633"/><path d="M228.68,47.29a3,3,0,0,0,2.93-3.67,9.67,9.67,0,0,1-.32-2.67c0-.14,0-.26,0-.35,0-8.36,0-17,0-24.64V8.89a3.11,3.11,0,0,0-2.73-3.15,3,3,0,0,0-3.28,3V16c0,8.07,0,25.07,0,25.33a6.21,6.21,0,0,0,1.1,4.88A3,3,0,0,0,228.68,47.29Z" style="fill:#303633"/></svg>